# xmcd
#
# Track frame offsets: 
#        150
#        21756
#        38779
#        54259
#        68500
#        88765
#        98688
#        115015
#        135506
#        157250
#        176534
#        197575
#        214891
#        233422
#        255890
#        267538
#
# Disc length: 3881 seconds
#
# Revision: 0
# Processed by: cddbd v1.5.2PL0 Copyright (c) Steve Scherf et al.
# Submitted via: ExactAudioCopy v0.99pb5
#
DISCID=cc0f2710
DTITLE=Saxual Healing - Saxual Healing Vol. 2
DYEAR=1900
DGENRE=Pop
TTITLE0=What Becomes Of The Broken Hearted
TTITLE1=When A Man Loves A Woman
TTITLE2=Tonight I Celebrate My Love
TTITLE3=Speak Softly Love
TTITLE4=Right Here Waiting
TTITLE5=Yesterday
TTITLE6=(I Can´t Help) Falling In Love
TTITLE7=From This Moment On
TTITLE8=Nothing Compares 2 U
TTITLE9=I Just Called To Say I Love You
TTITLE10=The House Of The Rising Sun
TTITLE11=Let It Be
TTITLE12=Yesterday Once More
TTITLE13=What Can I Do
TTITLE14=Save The Last Dance For Me
TTITLE15=New Kid In Town
EXTD=
EXTT0=
EXTT1=
EXTT2=
EXTT3=
EXTT4=
EXTT5=
EXTT6=
EXTT7=
EXTT8=
EXTT9=
EXTT10=
EXTT11=
EXTT12=
EXTT13=
EXTT14=
EXTT15=
PLAYORDER=
